<svg width="44" height="44" viewBox="0 0 44 44" fill="none" xmlns="http://www.w3.org/2000/svg">
<path d="M18.3333 12.8333L17.3876 15.389C16.1475 18.7403 15.5275 20.4159 14.3051 21.6384C13.0827 22.8607 11.4071 23.4807 8.05576 24.721L5.5 25.6666L8.05576 26.6122C11.4071 27.8525 13.0827 28.4725 14.3051 29.6948C15.5275 30.9173 16.1475 32.5929 17.3876 35.9441L18.3333 38.4999L19.279 35.9441C20.5192 32.5929 21.1392 30.9173 22.3615 29.6948C23.584 28.4725 25.2597 27.8525 28.6108 26.6122L31.1667 25.6666L28.6108 24.721C25.2597 23.4807 23.584 22.8607 22.3615 21.6384C21.1392 20.4159 20.5192 18.7403 19.279 15.389L18.3333 12.8333Z" stroke="#BB65FF" stroke-width="2.75" stroke-linejoin="round"/>
<path d="M33 5.5L32.5947 6.59533C32.0632 8.0316 31.7975 8.74975 31.2736 9.27361C30.7498 9.79748 30.0316 10.0632 28.5954 10.5947L27.5 11L28.5954 11.4053C30.0316 11.9368 30.7498 12.2025 31.2736 12.7264C31.7975 13.2503 32.0632 13.9684 32.5947 15.4047L33 16.5L33.4053 15.4047C33.9368 13.9684 34.2025 13.2503 34.7265 12.7264C35.2502 12.2025 35.9684 11.9368 37.4046 11.4053L38.5 11L37.4046 10.5947C35.9684 10.0632 35.2502 9.79748 34.7265 9.27361C34.2025 8.74975 33.9368 8.0316 33.4053 6.59533L33 5.5Z" stroke="#BB65FF" stroke-width="2.75" stroke-linejoin="round"/>
</svg>
