<svg width="20" height="20" viewBox="0 0 20 20" fill="none" xmlns="http://www.w3.org/2000/svg">
<path d="M1.66699 15.8333V6.29085C1.66699 5.08763 1.66699 4.48602 1.86976 4.01372C2.12258 3.42488 2.59187 2.95558 3.18072 2.70277C3.65301 2.5 4.2487 2.5 5.45784 2.5H5.86958C6.37382 2.5 6.85095 2.72828 7.16733 3.12091L8.68157 5M8.68157 5H13.3337C14.5004 5 15.0838 5 15.5295 5.22707C15.9215 5.42681 16.2402 5.74552 16.4399 6.13752C16.667 6.58317 16.667 7.16656 16.667 8.33333V9.16667M8.68157 5H5.83366" stroke="#757575" stroke-width="1.5" stroke-linecap="round" stroke-linejoin="round"/>
<path d="M2.63201 12.9286L2.88068 12.3097C3.49223 10.7874 3.79802 10.0263 4.43566 9.59646C5.0733 9.16663 5.89663 9.16663 7.5433 9.16663H14.2602C16.5007 9.16663 17.6208 9.16663 18.1188 9.89888C18.6167 10.6312 18.2007 11.6668 17.3687 13.738L17.12 14.3569C16.5084 15.8792 16.2027 16.6403 15.565 17.0701C14.9273 17.5 14.104 17.5 12.4573 17.5H5.74042C3.5 17.5 2.37978 17.5 1.88184 16.7677C1.3839 16.0354 1.79993 14.9998 2.63201 12.9286Z" stroke="#757575" stroke-width="1.5" stroke-linejoin="round"/>
</svg>
