<svg width="44" height="44" viewBox="0 0 44 44" fill="none" xmlns="http://www.w3.org/2000/svg">
<path d="M22.0003 40.3334C32.1255 40.3334 40.3337 32.1253 40.3337 22.0001C40.3337 11.8749 32.1255 3.66675 22.0003 3.66675C11.8751 3.66675 3.66699 11.8749 3.66699 22.0001C3.66699 32.1253 11.8751 40.3334 22.0003 40.3334Z" stroke="#FF5C00" stroke-width="2.75"/>
<path d="M12.833 15.362H21.083M21.083 15.362H26.583M21.083 15.362V12.8333M31.1663 15.362H26.583M26.583 15.362C25.6159 18.8202 23.5908 22.0892 21.2794 24.9622M21.2794 24.9622C19.3654 27.3412 17.2551 29.4484 15.3866 31.1666M21.2794 24.9622C20.1009 23.5804 18.4509 21.3447 17.9794 20.3332M21.2794 24.9622L24.8151 28.6379" stroke="#FF5C00" stroke-width="2.75" stroke-linecap="round" stroke-linejoin="round"/>
</svg>
