<svg width="155" height="44" viewBox="0 0 155 44" fill="none" xmlns="http://www.w3.org/2000/svg">
<g filter="url(#filter0_i_37_737)">
<g clip-path="url(#clip0_37_737)">
<rect width="44" height="44" rx="12" fill="url(#paint0_linear_37_737)"/>
<path opacity="0.5" d="M18.8 6.84752C19.9658 6.17446 20.5487 5.83793 21.1684 5.70621C21.7167 5.58967 22.2833 5.58967 22.8316 5.70621C23.4513 5.83793 24.0342 6.17446 25.2 6.84752L33.5224 11.6525C34.6882 12.3255 35.2711 12.6621 35.695 13.1329C36.0701 13.5495 36.3534 14.0402 36.5267 14.5733C36.7224 15.1759 36.7224 15.8489 36.7224 17.195V26.805C36.7224 28.1511 36.7224 28.8241 36.5267 29.4267C36.3534 29.9598 36.0701 30.4505 35.695 30.8671C35.2711 31.3379 34.6882 31.6745 33.5224 32.3475L25.2 37.1525C24.0342 37.8255 23.4513 38.1621 22.8316 38.2938C22.2833 38.4103 21.7167 38.4103 21.1684 38.2938C20.5487 38.1621 19.9658 37.8255 18.8 37.1525L10.4776 32.3475C9.31179 31.6745 8.72891 31.3379 8.30499 30.8671C7.9299 30.4505 7.64656 29.9598 7.47334 29.4267C7.27757 28.8241 7.27757 28.1511 7.27757 26.805V17.195C7.27757 15.8489 7.27757 15.1759 7.47334 14.5733C7.64656 14.0402 7.9299 13.5495 8.30499 13.1329C8.72891 12.6621 9.31179 12.3255 10.4776 11.6525L18.8 6.84752Z" fill="url(#paint1_linear_37_737)" fill-opacity="0.94902"/>
<path d="M27 11L21.1509 12.2913L17 23.7217L20.5849 23.1478L17 33L26.2453 18.8435L23.0377 19.3696L27 11Z" fill="#0F0F0F"/>
</g>
<rect x="0.5" y="0.5" width="43" height="43" rx="11.5" stroke="white"/>
</g>
<path d="M67.4304 14.4545V29H64.7741L58.446 19.8452H58.3395V29H55.2642V14.4545H57.9631L64.2415 23.6023H64.3693V14.4545H67.4304ZM74.886 29.2131C73.7638 29.2131 72.7979 28.9858 71.9883 28.5312C71.1834 28.072 70.5631 27.4233 70.1275 26.5852C69.6919 25.7424 69.4741 24.7457 69.4741 23.5952C69.4741 22.473 69.6919 21.4882 70.1275 20.6406C70.5631 19.7931 71.1763 19.1326 71.967 18.6591C72.7624 18.1856 73.6952 17.9489 74.7653 17.9489C75.485 17.9489 76.1549 18.0649 76.7752 18.2969C77.4002 18.5241 77.9447 18.8674 78.4087 19.3267C78.8775 19.786 79.2421 20.3636 79.5025 21.0597C79.7629 21.7509 79.8931 22.5606 79.8931 23.4886V24.3196H70.6815V22.4446H77.0451C77.0451 22.009 76.9504 21.6231 76.761 21.2869C76.5716 20.9508 76.3088 20.688 75.9727 20.4986C75.6412 20.3045 75.2553 20.2074 74.815 20.2074C74.3557 20.2074 73.9485 20.3139 73.5934 20.527C73.243 20.7353 72.9684 21.017 72.7695 21.3722C72.5707 21.7225 72.4689 22.1132 72.4641 22.544V24.3267C72.4641 24.8665 72.5636 25.3329 72.7624 25.7259C72.966 26.1188 73.2525 26.4219 73.6218 26.6349C73.9911 26.848 74.4291 26.9545 74.9357 26.9545C75.2719 26.9545 75.5797 26.9072 75.859 26.8125C76.1384 26.7178 76.3775 26.5758 76.5763 26.3864C76.7752 26.197 76.9267 25.965 77.0309 25.6903L79.8292 25.875C79.6871 26.5473 79.396 27.1345 78.9556 27.6364C78.52 28.1335 77.9566 28.5218 77.2653 28.8011C76.5787 29.0758 75.7856 29.2131 74.886 29.2131ZM83.9414 29L80.9727 18.0909H84.0337L85.7241 25.4205H85.8235L87.5849 18.0909H90.5891L92.3789 25.3778H92.4712L94.1332 18.0909H97.1871L94.2255 29H91.0224L89.1474 22.1392H89.0124L87.1374 29H83.9414ZM98.858 29V14.4545H108.659V16.9901H101.933V20.456H108.155V22.9915H101.933V26.4645H108.688V29H98.858ZM111.047 29V18.0909H113.98V19.9943H114.094C114.293 19.3172 114.627 18.8059 115.096 18.4602C115.564 18.1098 116.104 17.9347 116.715 17.9347C116.866 17.9347 117.03 17.9441 117.205 17.9631C117.38 17.982 117.534 18.008 117.667 18.0412V20.7259C117.525 20.6832 117.328 20.6454 117.077 20.6122C116.826 20.5791 116.596 20.5625 116.388 20.5625C115.943 20.5625 115.545 20.6596 115.195 20.8537C114.849 21.0431 114.575 21.3082 114.371 21.6491C114.172 21.9901 114.073 22.383 114.073 22.8281V29H111.047ZM122.029 29.206C121.333 29.206 120.713 29.0852 120.168 28.8438C119.624 28.5975 119.193 28.2353 118.876 27.7571C118.563 27.2741 118.407 26.6728 118.407 25.9531C118.407 25.3471 118.518 24.8381 118.741 24.4261C118.963 24.0142 119.266 23.6828 119.65 23.4318C120.033 23.1809 120.469 22.9915 120.957 22.8636C121.449 22.7358 121.965 22.6458 122.505 22.5938C123.139 22.5275 123.651 22.4659 124.039 22.4091C124.427 22.3475 124.709 22.2576 124.884 22.1392C125.059 22.0208 125.147 21.8456 125.147 21.6136V21.571C125.147 21.1212 125.005 20.7732 124.721 20.527C124.442 20.2808 124.044 20.1577 123.528 20.1577C122.983 20.1577 122.55 20.2784 122.228 20.5199C121.906 20.7566 121.693 21.0549 121.589 21.4148L118.79 21.1875C118.933 20.5246 119.212 19.9517 119.629 19.4688C120.045 18.9811 120.583 18.607 121.241 18.3466C121.904 18.0814 122.671 17.9489 123.542 17.9489C124.148 17.9489 124.728 18.0199 125.282 18.1619C125.841 18.304 126.335 18.5241 126.766 18.8224C127.202 19.1207 127.545 19.5043 127.796 19.973C128.047 20.437 128.173 20.9934 128.173 21.642V29H125.303V27.4872H125.218C125.043 27.8281 124.808 28.1288 124.515 28.3892C124.221 28.6449 123.869 28.8461 123.457 28.9929C123.045 29.1349 122.569 29.206 122.029 29.206ZM122.896 27.1179C123.341 27.1179 123.734 27.0303 124.075 26.8551C124.415 26.6752 124.683 26.4337 124.877 26.1307C125.071 25.8277 125.168 25.4844 125.168 25.1009V23.9432C125.074 24.0047 124.943 24.0616 124.778 24.1136C124.617 24.161 124.434 24.206 124.231 24.2486C124.027 24.2865 123.824 24.322 123.62 24.3551C123.416 24.3835 123.232 24.4096 123.066 24.4332C122.711 24.4853 122.401 24.5682 122.136 24.6818C121.871 24.7955 121.665 24.9493 121.518 25.1435C121.371 25.3329 121.298 25.5696 121.298 25.8537C121.298 26.2656 121.447 26.5805 121.745 26.7983C122.048 27.0114 122.432 27.1179 122.896 27.1179ZM137.713 29H134.417L139.439 14.4545H143.402L148.416 29H145.12L141.477 17.7784H141.363L137.713 29ZM137.507 23.2827H145.291V25.6832H137.507V23.2827ZM153.242 14.4545V29H150.167V14.4545H153.242Z" fill="#0A0A0A"/>
<defs>
<filter id="filter0_i_37_737" x="0" y="0" width="44" height="44" filterUnits="userSpaceOnUse" color-interpolation-filters="sRGB">
<feFlood flood-opacity="0" result="BackgroundImageFix"/>
<feBlend mode="normal" in="SourceGraphic" in2="BackgroundImageFix" result="shape"/>
<feColorMatrix in="SourceAlpha" type="matrix" values="0 0 0 0 0 0 0 0 0 0 0 0 0 0 0 0 0 0 127 0" result="hardAlpha"/>
<feOffset/>
<feGaussianBlur stdDeviation="2"/>
<feComposite in2="hardAlpha" operator="arithmetic" k2="-1" k3="1"/>
<feColorMatrix type="matrix" values="0 0 0 0 0 0 0 0 0 0 0 0 0 0 0 0 0 0 0.25 0"/>
<feBlend mode="normal" in2="shape" result="effect1_innerShadow_37_737"/>
</filter>
<linearGradient id="paint0_linear_37_737" x1="41.3696" y1="2.86957" x2="19.1304" y2="41.8478" gradientUnits="userSpaceOnUse">
<stop stop-color="#FDF449"/>
<stop offset="1" stop-color="#EF9E28"/>
</linearGradient>
<linearGradient id="paint1_linear_37_737" x1="22" y1="5" x2="22" y2="39" gradientUnits="userSpaceOnUse">
<stop stop-color="white"/>
<stop offset="1" stop-color="white" stop-opacity="0"/>
</linearGradient>
<clipPath id="clip0_37_737">
<rect width="44" height="44" rx="12" fill="white"/>
</clipPath>
</defs>
</svg>
