<svg width="20" height="20" viewBox="0 0 20 20" fill="none" xmlns="http://www.w3.org/2000/svg">
<path d="M1.66699 8.75004C1.66699 8.10772 1.67821 7.4807 1.69957 6.87529C1.76934 4.8974 1.80423 3.90845 2.60872 3.09792C3.4132 2.28738 4.43007 2.24387 6.46382 2.15687C7.57963 2.10912 8.76774 2.08337 10.0003 2.08337C11.2329 2.08337 12.421 2.10912 13.5368 2.15687C15.5706 2.24387 16.5875 2.28738 17.3919 3.09792C18.1964 3.90845 18.2313 4.8974 18.3011 6.87529C18.3224 7.4807 18.3337 8.10772 18.3337 8.75004C18.3337 9.39237 18.3224 10.0194 18.3011 10.6248C18.2313 12.6027 18.1964 13.5916 17.3919 14.4022C16.5875 15.2127 15.5706 15.2562 13.5367 15.3432C12.9252 15.3694 12.2918 15.389 11.6414 15.4013C11.0238 15.413 10.715 15.4189 10.4437 15.5222C10.1723 15.6255 9.94407 15.8213 9.48741 16.2128L7.67118 17.7702C7.56093 17.8647 7.42048 17.9167 7.27525 17.9167C6.93932 17.9167 6.66699 17.6444 6.66699 17.3085V15.3516C6.59901 15.3489 6.53128 15.3461 6.46382 15.3432C4.43007 15.2562 3.4132 15.2127 2.60872 14.4021C1.80423 13.5916 1.76934 12.6027 1.69957 10.6248C1.67821 10.0194 1.66699 9.39237 1.66699 8.75004Z" stroke="#757575" stroke-width="1.5" stroke-linecap="round" stroke-linejoin="round"/>
<path d="M9.97108 5.44049C9.97758 5.40867 10.0231 5.40867 10.0296 5.44049C10.3672 7.09227 11.658 8.38313 13.3098 8.72071C13.3416 8.72721 13.3416 8.77271 13.3098 8.77921C11.658 9.11679 10.3672 10.4076 10.0296 12.0595C10.0231 12.0912 9.97758 12.0912 9.97108 12.0595C9.63349 10.4076 8.34266 9.11679 6.69086 8.77921C6.65904 8.77271 6.65904 8.72721 6.69086 8.72071C8.34266 8.38313 9.63349 7.09227 9.97108 5.44049Z" stroke="#757575" stroke-width="1.5" stroke-linejoin="round"/>
</svg>
