<svg width="44" height="44" viewBox="0 0 44 44" fill="none" xmlns="http://www.w3.org/2000/svg">
<path d="M19.25 3.66675V7.33341M24.75 3.66675V7.33341M14.6667 11.9167H11M14.6667 17.4167H11M33 11.9167H29.3333M33 17.4167H29.3333M24.4444 7.33341H19.5556C17.2509 7.33341 16.0986 7.33341 15.3826 8.04937C14.6667 8.76534 14.6667 9.91766 14.6667 12.2223V17.1112C14.6667 19.4158 14.6667 20.5682 15.3826 21.2842C16.0986 22.0001 17.2509 22.0001 19.5556 22.0001H24.4444C26.7491 22.0001 27.9015 22.0001 28.6174 21.2842C29.3333 20.5682 29.3333 19.4158 29.3333 17.1112V12.2223C29.3333 9.91766 29.3333 8.76534 28.6174 8.04937C27.9015 7.33341 26.7491 7.33341 24.4444 7.33341Z" stroke="#4873E9" stroke-width="2.5" stroke-linecap="round" stroke-linejoin="round"/>
<path d="M6.63175 40.1937C6.96867 40.3333 7.39578 40.3333 8.25 40.3333C9.10422 40.3333 9.53133 40.3333 9.86825 40.1937C10.3175 40.0077 10.6744 39.6507 10.8604 39.2015C11 38.8646 11 38.4374 11 37.5833C11 36.7291 11 36.3019 10.8604 35.965C10.6744 35.5158 10.3175 35.1589 9.86825 34.9728C9.53133 34.8333 9.10422 34.8333 8.25 34.8333C7.39578 34.8333 6.96867 34.8333 6.63175 34.9728C6.18253 35.1589 5.82562 35.5158 5.63955 35.965C5.5 36.3019 5.5 36.7291 5.5 37.5833C5.5 38.4374 5.5 38.8646 5.63955 39.2015C5.82562 39.6507 6.18253 40.0077 6.63175 40.1937Z" stroke="#4873E9" stroke-width="2.5" stroke-linejoin="round"/>
<path d="M20.3817 40.1937C20.7187 40.3333 21.1459 40.3333 22 40.3333C22.8542 40.3333 23.2813 40.3333 23.6183 40.1937C24.0675 40.0077 24.4244 39.6507 24.6105 39.2015C24.75 38.8646 24.75 38.4374 24.75 37.5833C24.75 36.7291 24.75 36.3019 24.6105 35.965C24.4244 35.5158 24.0675 35.1589 23.6183 34.9728C23.2813 34.8333 22.8542 34.8333 22 34.8333C21.1459 34.8333 20.7187 34.8333 20.3817 34.9728C19.9326 35.1589 19.5756 35.5158 19.3895 35.965C19.25 36.3019 19.25 36.7291 19.25 37.5833C19.25 38.4374 19.25 38.8646 19.3895 39.2015C19.5756 39.6507 19.9326 40.0077 20.3817 40.1937Z" stroke="#4873E9" stroke-width="2.5" stroke-linejoin="round"/>
<path d="M22 34.8333V22" stroke="#4873E9" stroke-width="2.5" stroke-linecap="round" stroke-linejoin="round"/>
<path d="M8.25 34.8334C8.25 32.2585 8.25 30.9711 8.86794 30.0464C9.13546 29.646 9.47921 29.3022 9.87958 29.0348C10.8044 28.4167 12.0918 28.4167 14.6667 28.4167H29.3333C31.9083 28.4167 33.1956 28.4167 34.1203 29.0348C34.5207 29.3022 34.8645 29.646 35.132 30.0464C35.75 30.9711 35.75 32.2585 35.75 34.8334" stroke="#4873E9" stroke-width="2.5" stroke-linecap="round" stroke-linejoin="round"/>
<path d="M34.1317 40.1937C34.4687 40.3333 34.8959 40.3333 35.75 40.3333C36.6042 40.3333 37.0313 40.3333 37.3683 40.1937C37.8175 40.0077 38.1744 39.6507 38.3605 39.2015C38.5 38.8646 38.5 38.4374 38.5 37.5833C38.5 36.7291 38.5 36.3019 38.3605 35.965C38.1744 35.5158 37.8175 35.1589 37.3683 34.9728C37.0313 34.8333 36.6042 34.8333 35.75 34.8333C34.8959 34.8333 34.4687 34.8333 34.1317 34.9728C33.6826 35.1589 33.3256 35.5158 33.1395 35.965C33 36.3019 33 36.7291 33 37.5833C33 38.4374 33 38.8646 33.1395 39.2015C33.3256 39.6507 33.6826 40.0077 34.1317 40.1937Z" stroke="#4873E9" stroke-width="2.5" stroke-linejoin="round"/>
</svg>
